<svg t="1630307067692" class="icon" viewBox="0 0 1024 1024" version="1.1" xmlns="http://www.w3.org/2000/svg" p-id="2587" width="200" height="200"><path d="M844.032 912H179.968a68.032 68.032 0 0 1-67.968-68.032V180.032c0-37.568 30.464-68.032 68.032-68.032h663.936c37.568 0 68.032 30.464 68.032 68.032v81.92a8 8 0 0 1-8 8.064h-56a8 8 0 0 1-8-8V184H184v656h656v-78.08c0-4.48 3.584-8 8-8h56c4.416 0 8 3.584 8 8v82.112c0 37.504-30.464 67.968-68.032 67.968z m-512-436.032h424c5.312 0 7.936 2.688 7.936 8v56c0 5.376-2.624 8.064-7.936 8.064H331.904c-5.312 0-8-2.688-8-8.064v-55.936c0-5.376 2.688-8 8-8z m561.024 23.936l-127.552-110.592a16 16 0 0 0-26.496 12.096v221.184a16 16 0 0 0 26.496 12.096l127.552-110.592a16 16 0 0 0 0-24.192z" p-id="2588"></path></svg>