<svg t="1630645360026" class="icon" viewBox="0 0 1024 1024" version="1.1" xmlns="http://www.w3.org/2000/svg" p-id="1538" width="200" height="200"><path d="M911.2 668 400.8 668c-24.8 0-44.8-21.6-44.8-48s20-48 44.8-48l510.4 0c24.8 0 44.8 21.6 44.8 48S936 668 911.2 668zM911.2 444 400.8 444c-24.8 0-44.8-21.6-44.8-48s20-48 44.8-48l510.4 0c24.8 0 44.8 21.6 44.8 48S936 444 911.2 444zM908 228l-784 0c-26.4 0-48-21.6-48-48 0-26.4 21.6-48 48-48l784 0c26.4 0 48 21.6 48 48C956 206.4 934.4 228 908 228zM300 668l-224-160 224-160L300 668zM124 788l784 0c26.4 0 48 21.6 48 48s-21.6 48-48 48l-784 0c-26.4 0-48-21.6-48-48S97.6 788 124 788z" p-id="1539"></path></svg>