<svg t="1654150735491" class="icon" viewBox="0 0 1024 1024" version="1.1" xmlns="http://www.w3.org/2000/svg" p-id="6501" width="200" height="200"><path d="M662.826667 68.48A308.266667 308.266667 0 0 0 409.6 553.173333L61.866667 900.906667a31.786667 31.786667 0 0 0 0 45.226666 30.933333 30.933333 0 0 0 23.466666 9.386667 31.36 31.36 0 0 0 21.333334-9.386667l91.52-91.52L281.6 938.666667a32 32 0 1 0 45.226667-45.44l-82.986667-82.773334 70.4-70.186666 94.72 94.72a31.786667 31.786667 0 0 0 22.613333 9.386666 32.64 32.64 0 0 0 22.613334-9.386666 32.213333 32.213333 0 0 0 0-45.226667l-94.72-94.933333 92.16-92.16a308.48 308.48 0 1 0 211.2-533.333334z" p-id="6502"></path></svg>